<?xml version="1.0" standalone="no"?>
<!DOCTYPE svg PUBLIC "-//W3C//DTD SVG 20010904//EN"
 "http://www.w3.org/TR/2001/REC-SVG-20010904/DTD/svg10.dtd">
<svg version="1.0" xmlns="http://www.w3.org/2000/svg"
 width="4500.000000pt" height="4500.000000pt" viewBox="0 0 4500.000000 4500.000000"
 preserveAspectRatio="xMidYMid meet">

<g transform="translate(0.000000,4500.000000) scale(0.100000,-0.100000)"
fill="#000000" stroke="none">
<path d="M25587 35847 l-87 -51 2 -470 3 -469 80 -48 c44 -27 86 -48 93 -49 8
0 54 23 103 52 l89 52 0 249 c0 195 3 248 13 244 6 -3 242 -138 522 -299 l510
-295 3 -361 2 -360 78 -46 c42 -24 85 -48 94 -51 11 -5 49 12 108 45 l90 52 0
355 c0 334 1 355 18 348 9 -3 419 -237 911 -518 l894 -512 -6 -1345 -7 -1345
495 -285 c272 -157 494 -287 495 -291 0 -3 -147 -91 -327 -195 l-327 -191 1
-964 1 -964 618 -357 c341 -197 633 -365 651 -375 31 -16 32 -16 66 10 20 15
38 27 41 27 3 0 6 -14 6 -30 0 -79 94 -192 208 -249 34 -17 101 -43 149 -58
82 -25 101 -27 273 -27 159 0 196 3 265 22 217 59 375 193 375 317 0 19 3 35
8 35 4 -1 32 -23 62 -50 l55 -50 3 50 c2 28 5 50 8 50 3 0 18 -7 34 -16 24
-15 28 -24 32 -78 9 -107 69 -196 166 -243 76 -37 191 -40 267 -5 42 19 53 21
77 11 16 -6 27 -17 25 -23 -2 -6 -35 -27 -73 -46 -64 -32 -76 -34 -159 -34
-80 0 -97 3 -153 31 l-64 30 6 -26 c21 -98 27 -182 24 -319 -3 -146 -5 -161
-30 -215 -51 -109 -188 -227 -344 -298 -335 -150 -843 -146 -1174 9 -170 79
-303 209 -341 332 -11 37 -10 -1133 1 -1213 14 -98 44 -152 129 -238 114 -114
256 -185 471 -236 82 -19 143 -26 280 -30 278 -9 476 29 678 128 133 66 245
168 294 267 l33 67 5 555 5 556 490 -284 c270 -156 495 -286 501 -288 7 -3
306 166 665 376 l654 380 5 584 5 583 140 -82 c77 -45 291 -169 475 -275 184
-106 398 -230 475 -275 77 -45 364 -211 638 -369 273 -158 497 -291 497 -294
-1 -4 -1252 -729 -2781 -1611 -2556 -1475 -2780 -1606 -2775 -1626 3 -13 19
-53 36 -90 l30 -67 32 20 c18 11 690 399 1493 862 803 463 1516 875 1585 915
130 76 1423 822 1730 999 675 388 990 572 990 578 0 3 -37 28 -82 54 -46 26
-87 53 -93 61 -5 7 -545 323 -1200 702 l-1190 689 -5 288 -5 288 -250 144
c-137 79 -311 179 -385 223 l-135 79 -3 -136 -3 -136 37 -40 c66 -74 82 -154
44 -228 -24 -47 -34 -54 -60 -40 -18 10 -20 8 -20 -24 0 -29 -5 -38 -30 -51
-16 -8 -31 -15 -35 -15 -3 0 -5 210 -5 468 0 457 0 466 -18 437 -21 -34 -40
-52 -62 -57 -8 -2 -20 -9 -28 -15 -25 -23 -116 -43 -198 -43 -116 0 -206 29
-261 85 l-43 42 0 -463 c0 -375 -3 -464 -13 -464 -24 0 -102 56 -139 99 -44
51 -63 120 -48 170 22 78 83 136 105 101 22 -35 25 17 23 368 l-3 377 -105 63
c-58 34 -108 62 -112 62 -5 0 -8 -62 -8 -139 l0 -139 34 -26 c40 -30 86 -117
86 -160 0 -38 -34 -114 -54 -122 -8 -3 -26 2 -40 11 l-26 17 0 -49 c0 -44 -3
-51 -25 -61 -14 -7 -30 -12 -35 -12 -6 0 -10 182 -10 478 0 461 -1 476 -18
450 -21 -32 -90 -81 -103 -73 -5 4 -9 2 -9 -3 0 -26 -170 -44 -267 -29 -68 10
-140 46 -178 88 l-35 39 0 -475 c0 -510 2 -493 -50 -459 -138 93 -175 210
-101 318 28 40 37 47 57 42 l24 -6 0 374 0 375 -92 54 -93 55 -3 -140 -3 -140
46 -49 c25 -27 50 -61 56 -76 18 -46 13 -109 -12 -153 -25 -45 -27 -46 -55
-25 -29 22 -33 19 -36 -32 -3 -41 -7 -49 -35 -66 l-33 -19 -1 489 c0 268 -3
481 -6 473 -16 -42 -52 -75 -112 -103 -111 -53 -299 -49 -397 7 -22 13 -38 28
-36 35 1 7 -2 10 -7 7 -13 -8 -53 44 -47 61 3 7 1 13 -4 13 -6 0 -10 -179 -10
-485 0 -277 -4 -485 -9 -485 -23 0 -109 71 -138 114 -53 78 -44 175 24 247 14
15 32 25 41 22 16 -4 17 24 14 369 -2 205 -6 376 -10 379 -4 4 -47 30 -97 58
l-90 52 -3 -142 -3 -142 46 -44 c77 -73 94 -147 54 -230 -23 -48 -27 -49 -55
-28 -34 26 -44 18 -44 -35 0 -45 -3 -51 -30 -65 l-30 -16 -1 503 c-1 277 -4
493 -6 480 -8 -39 -74 -97 -135 -120 -178 -66 -400 -17 -466 103 -9 15 -11
-107 -12 -473 l0 -492 -37 19 c-109 56 -169 164 -143 256 15 52 64 115 91 115
19 0 19 18 19 911 l0 911 -30 34 c-79 90 -60 255 39 333 89 71 202 103 366
107 105 2 127 5 179 29 32 14 66 24 75 23 9 -2 -10 -16 -44 -32 l-60 -28 55
-17 c76 -24 134 -55 179 -97 55 -49 71 -89 71 -174 0 -76 -14 -115 -56 -161
l-24 -25 2 -228 3 -228 93 -54 c52 -30 95 -54 98 -54 2 0 -12 24 -32 52 -36
52 -36 53 -32 144 3 81 6 94 31 128 38 48 116 99 197 127 88 30 285 38 383 15
124 -29 237 -98 271 -165 40 -77 30 -191 -20 -257 l-34 -45 2 -221 3 -222 90
-52 c50 -29 92 -50 94 -48 3 2 -7 17 -21 32 -44 47 -58 86 -58 162 0 86 20
131 85 188 89 78 246 119 422 109 120 -6 211 -33 289 -87 82 -55 108 -96 112
-181 6 -95 -3 -129 -43 -176 l-35 -41 0 -224 0 -223 68 -37 c37 -21 87 -50
112 -64 44 -27 45 -27 24 -3 -41 46 -54 85 -54 164 0 91 15 129 72 181 144
130 472 158 671 58 124 -63 167 -124 167 -237 0 -75 -14 -116 -53 -163 -23
-27 -27 -41 -27 -93 0 -34 2 -61 4 -61 3 0 58 16 122 35 76 24 120 33 127 26
6 -6 -3 -15 -27 -25 -52 -22 -194 -66 -212 -66 -9 0 -14 -11 -14 -35 0 -19 3
-35 7 -35 4 0 40 9 81 21 243 68 474 217 608 390 96 125 154 256 154 347 0 63
-39 141 -93 188 -23 20 -260 162 -527 316 -267 153 -595 343 -730 420 -135 78
-273 157 -307 176 -34 20 -60 39 -57 43 5 9 558 359 567 359 14 0 4540 -2618
4642 -2685 738 -483 1092 -1257 891 -1945 -118 -405 -416 -774 -861 -1066 -60
-39 -1608 -937 -3440 -1994 -1831 -1057 -3331 -1923 -3332 -1924 -1 -1 67
-166 73 -174 3 -5 6910 3985 6989 4037 168 110 357 295 481 466 74 103 201
353 239 470 77 238 99 395 92 660 -4 162 -10 223 -31 320 -101 479 -371 885
-765 1153 -109 75 -8327 4820 -8516 4918 -472 244 -994 399 -1555 461 -191 21
-656 24 -840 5 -171 -18 -372 -48 -513 -79 l-118 -25 -77 44 c-42 25 -355 205
-695 401 -340 196 -623 357 -630 357 -7 -1 -51 -24 -100 -53z m4581 -6344
l222 -128 0 -277 c0 -153 -3 -278 -8 -278 -4 0 -17 7 -28 15 -12 8 -178 105
-370 215 -192 111 -355 206 -361 212 -10 8 -13 73 -13 262 0 138 3 261 6 272
5 20 16 16 167 -72 89 -52 262 -151 385 -221z m1130 -652 l42 -21 0 -280 c0
-154 -3 -280 -6 -280 -3 0 -19 9 -35 21 l-29 20 0 214 0 213 -97 56 -98 56 -3
-210 c-1 -116 -4 -210 -7 -210 -2 0 -16 5 -30 12 l-25 11 0 283 0 283 123 -73
c67 -40 141 -83 165 -95z m-1386 -63 c109 -62 197 -115 198 -118 0 -4 -468
-279 -492 -288 -4 -2 -8 128 -8 288 l0 292 53 -31 c28 -17 141 -81 249 -143z
m480 -331 c14 -113 80 -206 177 -250 68 -32 189 -31 259 2 50 23 52 24 78 6
l28 -18 -30 -24 c-16 -13 -60 -33 -98 -45 -140 -43 -284 -2 -385 107 -61 67
-92 144 -99 244 l-5 75 34 -20 c30 -18 35 -26 41 -77z m1811 -129 l87 -49 0
-279 0 -280 -35 17 -35 17 0 217 0 217 -92 54 -93 54 -3 -160 -3 -159 -34 33
-35 34 0 212 0 213 78 -46 c42 -25 116 -68 165 -95z m892 -515 l170 -100 3
-276 c1 -152 0 -277 -3 -277 -3 0 -19 7 -35 15 l-30 15 -2 217 -3 217 -105 63
c-58 34 -108 62 -112 63 -5 0 -8 -94 -8 -210 0 -115 -3 -210 -6 -210 -3 0 -19
8 -35 17 l-29 17 0 279 c0 219 3 278 13 274 6 -3 89 -50 182 -104z m175 -1030
c7 -84 46 -160 107 -210 35 -29 43 -42 43 -69 l0 -34 -38 19 c-50 25 -114 96
-148 163 -23 44 -28 70 -32 147 l-5 95 34 -22 c32 -20 34 -25 39 -89z m-1810
-748 c80 0 160 3 178 7 l32 8 0 -175 c0 -204 -14 -188 132 -155 81 18 231 72
253 91 5 5 13 9 17 9 4 0 8 -79 8 -175 l0 -175 -47 -24 c-73 -36 -192 -74
-279 -89 l-79 -13 -3 -177 -2 -176 -48 -8 c-26 -4 -99 -8 -162 -8 -63 0 -136
4 -162 8 l-48 8 -2 176 -3 177 -72 12 c-86 14 -174 42 -266 83 l-67 30 0 176
c0 96 2 175 5 175 3 0 27 -11 53 -24 63 -31 159 -64 244 -81 119 -25 108 -41
108 160 l0 175 33 -8 c17 -4 97 -7 177 -7z"/>
<path d="M24079 34801 c-219 -117 -245 -144 -234 -241 15 -138 141 -290 240
-290 16 0 81 30 152 72 146 84 158 99 150 193 -8 110 -81 225 -169 269 -65 33
-73 32 -139 -3z"/>
<path d="M24670 33108 l0 -1613 1521 -878 c837 -483 1523 -876 1524 -875 2 2
5 725 7 1608 l4 1606 -1489 859 c-819 473 -1507 870 -1528 883 l-39 23 0
-1613z m2487 -187 c51 -24 112 -85 138 -140 14 -29 24 -39 35 -34 8 3 34 8 56
11 107 11 214 -110 244 -275 26 -151 -46 -227 -248 -263 -39 -7 -74 -11 -76
-9 -30 36 -174 243 -209 302 -113 185 -133 336 -55 402 35 30 59 31 115 6z
m-2377 -175 c30 -18 199 -119 375 -224 l320 -190 25 -52 26 -52 48 112 c27 61
51 109 53 106 3 -3 28 -98 57 -212 l52 -208 31 120 c17 65 48 186 68 267 21
81 41 144 45 140 4 -4 79 -297 167 -651 112 -450 162 -634 166 -615 3 15 31
141 61 278 30 138 98 448 151 690 52 242 98 447 101 455 9 20 13 5 170 -680
76 -327 140 -599 144 -603 4 -5 21 14 39 41 l32 50 182 -106 c100 -58 265
-153 366 -211 190 -109 235 -147 214 -179 -6 -9 -18 -16 -27 -14 -9 2 -85 43
-169 91 -453 264 -532 309 -538 305 -3 -2 -28 -58 -54 -124 -26 -66 -50 -120
-54 -120 -3 0 -69 273 -146 606 -90 394 -142 599 -147 587 -4 -10 -44 -184
-88 -388 -198 -908 -222 -1020 -226 -1024 -2 -2 -6 -2 -7 0 -2 2 -77 298 -167
658 l-163 655 -18 -65 c-9 -35 -41 -155 -70 -267 -28 -111 -54 -200 -56 -198
-3 3 -31 109 -63 236 -32 127 -60 233 -62 236 -3 2 -18 -28 -33 -66 -16 -39
-32 -73 -37 -76 -4 -3 -34 48 -66 112 l-57 117 -105 62 c-58 34 -152 89 -210
122 -300 173 -406 236 -412 247 -4 6 -8 23 -8 39 0 37 21 35 90 -7z"/>
<path d="M18590 34207 c-49 -19 -476 -268 -531 -310 -75 -57 -102 -143 -97
-307 l3 -92 372 -214 371 -215 229 132 c125 72 234 137 241 143 7 7 15 48 18
97 16 227 -82 468 -259 636 -121 115 -256 165 -347 130z"/>
<path d="M24015 33865 c-140 -82 -165 -109 -165 -175 0 -149 127 -316 239
-314 38 0 65 11 159 68 62 37 120 80 130 94 26 40 21 135 -10 204 -47 102
-147 188 -218 187 -14 0 -74 -29 -135 -64z"/>
<path d="M23115 33012 c-308 -178 -566 -327 -574 -331 -13 -8 -12 -12 2 -32
27 -39 191 -221 207 -232 12 -7 125 54 460 248 245 141 451 262 458 269 9 9
12 60 10 207 l-3 195 -560 -324z"/>
<path d="M23876 32979 c-102 -80 -59 -255 68 -276 50 -8 103 4 126 29 64 70
-41 268 -142 268 -14 0 -37 -9 -52 -21z"/>
<path d="M24216 32778 c-128 -128 0 -327 173 -267 37 13 51 35 51 80 0 91 -80
204 -152 216 -33 5 -42 1 -72 -29z"/>
<path d="M22000 32236 c-62 -24 -1894 -1086 -1928 -1119 -18 -17 -46 -58 -62
-91 l-30 -59 0 -1134 c0 -1120 0 -1133 20 -1153 26 -26 70 -26 121 0 22 12
646 370 1387 797 894 515 1362 789 1390 817 24 22 56 64 70 91 l27 50 3 350
c3 376 -2 444 -44 529 -29 62 -772 905 -812 923 -35 16 -98 15 -142 -1z"/>
<path d="M24030 32189 c-109 -64 -120 -78 -120 -143 0 -97 85 -217 164 -232
31 -5 48 1 135 52 112 64 128 86 117 156 -19 116 -109 219 -189 218 -12 -1
-60 -23 -107 -51z"/>
<path d="M31070 31261 c0 -210 3 -381 7 -381 3 0 48 26 99 58 l93 57 3 233 c1
127 2 246 2 264 1 34 5 30 -146 117 l-58 32 0 -380z"/>
<path d="M32030 31056 c0 -32 5 -37 96 -90 l95 -55 -3 36 c-3 33 -8 38 -95 89
l-93 53 0 -33z"/>
<path d="M32970 30510 c0 -26 9 -34 84 -79 46 -27 98 -57 115 -65 l31 -17 0
33 c0 31 -6 36 -109 96 -60 34 -111 62 -115 62 -3 0 -6 -13 -6 -30z"/>
<path d="M23670 30324 c-312 -182 -919 -533 -1520 -879 -69 -40 -228 -132
-355 -205 -126 -73 -286 -166 -355 -205 -126 -73 -805 -465 -870 -503 -28 -16
-741 -428 -1320 -761 l-115 -67 -3 -236 -2 -237 182 106 c101 58 255 147 343
198 88 51 216 125 285 165 69 40 276 159 460 265 184 106 416 240 515 297 199
115 565 327 1130 653 132 76 278 160 325 187 47 28 220 128 385 223 165 95
381 220 480 277 99 57 276 159 393 227 l212 123 0 234 c0 129 -1 234 -2 234
-2 0 -77 -44 -168 -96z"/>
<path d="M15915 28455 c-945 -174 -1957 -1378 -2215 -2639 -53 -260 -68 -584
-36 -810 29 -203 107 -421 199 -555 50 -74 166 -189 236 -235 149 -99 292
-140 491 -140 151 0 254 16 403 65 107 35 310 130 417 197 831 513 1512 1605
1636 2622 21 171 15 509 -11 645 -85 451 -324 742 -690 841 -85 23 -326 28
-430 9z m-65 -906 c0 -349 2 -410 14 -406 8 3 170 96 362 206 191 111 349 201
351 201 1 0 3 -258 3 -573 l0 -573 -167 -96 c-93 -53 -253 -146 -358 -206
l-190 -111 -3 -418 -3 -418 -162 -93 c-89 -51 -313 -180 -497 -286 l-335 -194
-5 414 -5 413 -140 -81 c-444 -255 -556 -319 -570 -324 -13 -6 -15 59 -13 566
l3 573 357 206 358 206 0 417 0 416 113 65 c61 36 247 142 412 237 165 95 336
195 380 221 44 27 83 49 88 49 4 0 7 -185 7 -411z"/>
<path d="M22282 28329 c-294 -49 -632 -309 -878 -675 -76 -115 -200 -361 -243
-485 -51 -149 -83 -311 -90 -463 l-6 -138 -107 -62 -107 -63 37 -35 c39 -38
506 -312 582 -342 63 -26 198 -31 286 -13 406 87 854 568 1033 1112 58 175 72
252 78 426 4 122 2 174 -11 240 -22 114 -80 230 -148 296 -60 59 -317 214
-351 212 -12 -1 -46 -5 -75 -10z"/>
<path d="M26267 28034 c-31 -7 -72 -21 -90 -30 -55 -28 -2329 -1353 -2387
-1391 -174 -113 -289 -265 -352 -463 -20 -66 -23 -94 -23 -235 1 -120 5 -176
18 -225 10 -36 338 -955 730 -2043 647 -1798 716 -1983 751 -2025 53 -64 67
-103 71 -192 3 -67 18 -115 139 -450 74 -206 137 -382 140 -390 4 -8 33 -32
65 -53 55 -35 172 -149 219 -212 l22 -30 -11 30 c-6 17 -321 892 -701 1945
-379 1053 -707 1963 -728 2021 l-38 106 836 485 c461 268 1229 714 1709 992
479 278 878 508 885 511 11 5 173 -433 693 -1877 373 -1036 681 -1888 684
-1895 3 -6 40 -36 83 -66 l76 -55 -48 137 c-27 75 -146 406 -265 736 -119 330
-236 654 -260 720 -38 108 -434 1206 -540 1500 -118 326 -233 645 -400 1110
-322 895 -322 894 -366 961 -85 131 -265 270 -433 335 -148 57 -348 75 -479
43z m-1060 -974 c66 -40 89 -135 53 -218 -41 -94 -114 -131 -187 -96 -122 60
-115 252 12 322 31 18 87 14 122 -8z m-808 -1777 c15 -33 29 -23 -190 -150
l-158 -91 -10 31 c-7 19 -8 34 -2 40 15 15 325 196 337 196 6 1 16 -11 23 -26z
m66 -184 c6 -25 -1 -31 -167 -128 -96 -55 -177 -101 -180 -101 -6 0 -30 62
-26 65 27 23 354 203 359 198 4 -5 11 -20 14 -34z m60 -170 c4 -17 5 -32 3
-34 -19 -19 -345 -201 -350 -196 -4 4 -10 20 -13 36 -5 30 -3 32 162 127 93
53 173 97 180 97 6 1 14 -13 18 -30z"/>
<path d="M25076 27039 c-88 -69 -88 -232 1 -274 132 -63 247 167 135 270 -35
32 -98 34 -136 4z m86 -86 c26 -23 23 -69 -7 -98 -29 -30 -39 -31 -65 -5 -26
26 -25 60 1 94 24 30 45 33 71 9z"/>
<path d="M19385 26090 c-170 -99 -316 -180 -323 -180 -10 0 -13 18 -10 79 l3
80 -97 55 c-54 31 -103 56 -109 56 -6 0 -385 -215 -840 -477 l-829 -478 0
-205 -1 -205 -973 -560 -973 -560 -8 -455 c-4 -250 -5 -511 -1 -580 3 -69 6
-663 6 -1321 l0 -1197 221 -128 c122 -71 240 -140 263 -153 22 -13 179 -104
348 -202 169 -98 312 -180 316 -181 5 -2 1016 578 2246 1287 l2236 1290 0
1776 -1 1777 -307 178 c-169 98 -338 196 -377 218 -38 22 -158 90 -267 153
-108 62 -200 113 -205 113 -4 -1 -147 -81 -318 -180z m49 -2153 c263 -97 406
-361 406 -750 0 -804 -644 -1764 -1330 -1982 -114 -36 -294 -45 -390 -20 -246
64 -406 277 -449 598 -70 515 211 1235 664 1705 196 205 386 339 598 423 159
64 368 74 501 26z"/>
<path d="M19077 23845 c-334 -63 -697 -351 -970 -770 -182 -280 -302 -592
-342 -895 -75 -549 169 -925 580 -897 116 8 195 31 330 97 455 220 872 773
1020 1354 45 178 59 299 52 465 -8 207 -53 347 -152 473 -112 144 -315 211
-518 173z m-29 -537 l7 -226 150 87 c83 48 176 102 208 120 l57 32 0 -339 0
-339 -207 -120 -208 -119 -5 -248 -5 -247 -285 -164 c-157 -91 -288 -165 -292
-165 -4 0 -9 107 -10 239 l-3 239 -205 -119 c-113 -65 -208 -119 -213 -119 -4
0 -6 152 -5 337 l3 337 210 121 210 121 3 246 2 247 88 49 c48 28 177 102 287
166 121 70 201 110 203 103 1 -7 6 -114 10 -239z"/>
<path d="M5974 23119 c-830 -479 -1547 -899 -1594 -932 -114 -82 -339 -309
-422 -427 -461 -653 -449 -1557 28 -2191 125 -164 310 -337 474 -441 165 -105
8371 -4835 8505 -4903 552 -280 1129 -431 1769 -465 743 -40 1571 141 2228
488 146 77 6937 3994 6938 4002 0 3 -19 17 -43 32 -23 15 -55 40 -71 57 -17
17 -35 31 -42 31 -7 0 -707 -401 -1556 -891 -848 -490 -1646 -951 -1773 -1024
-126 -73 -925 -535 -1775 -1026 -850 -491 -1630 -936 -1735 -989 -1051 -530
-2281 -611 -3397 -224 -293 102 -495 198 -904 432 -282 161 -3746 2162 -3752
2167 -2 2 85 58 193 126 107 68 229 146 271 172 l75 48 -38 28 c-92 66 -142
152 -143 241 0 279 487 466 924 356 51 -14 108 -31 125 -40 l31 -16 190 119
190 120 552 -319 c589 -341 605 -349 711 -335 73 9 209 78 242 121 23 30 19
99 -7 128 -13 14 -266 165 -563 337 -297 171 -541 312 -542 313 -4 3 630 404
650 412 14 5 444 -234 677 -376 25 -15 945 -548 2045 -1185 1100 -636 2041
-1181 2090 -1210 50 -29 333 -193 630 -365 297 -172 550 -318 561 -325 20 -13
77 18 705 382 376 217 720 415 764 440 426 244 4462 2577 4469 2583 4 5 4 53
0 109 l-9 101 -370 -213 c-203 -117 -620 -358 -925 -534 -2805 -1620 -4371
-2523 -4376 -2523 -3 0 -220 124 -482 277 -262 152 -535 310 -607 351 -71 41
-371 215 -665 385 -294 171 -575 333 -625 362 -49 29 -461 267 -915 530 -454
263 -883 512 -955 553 -654 378 -1519 879 -1555 902 -25 16 -1471 855 -3215
1864 -1743 1010 -3171 1840 -3173 1845 -6 17 186 133 946 571 l772 445 0 198
c0 108 -4 197 -8 197 -5 0 -687 -392 -1518 -871z"/>
<path d="M13715 23309 c-353 -86 -745 -478 -946 -947 -80 -184 -125 -358 -144
-552 l-6 -65 -157 -92 c-86 -50 -326 -188 -532 -308 -206 -119 -377 -219 -379
-221 -3 -3 375 -3 840 -2 l844 3 72 27 c491 182 939 788 1024 1387 17 119 6
325 -21 421 -83 291 -304 420 -595 349z"/>
<path d="M20495 21140 c-209 -33 -379 -131 -442 -254 -24 -48 -25 -56 -24
-220 1 -150 4 -176 22 -213 28 -59 117 -137 203 -178 65 -31 197 -69 269 -77
25 -3 -18 -52 -533 -613 -542 -591 -563 -611 -642 -657 l-83 -48 -146 0 c-412
0 -870 -103 -1299 -292 -223 -98 -454 -234 -544 -320 l-46 -45 0 -121 c0 -84
4 -122 11 -122 7 0 394 95 862 210 468 116 855 209 859 208 4 -2 -130 -188
-297 -415 l-305 -412 0 -121 c0 -140 -4 -136 104 -96 164 62 434 222 600 356
190 153 352 355 409 507 29 80 47 172 47 245 l0 46 78 45 c67 38 230 91 1319
425 683 210 1246 382 1251 382 5 0 12 -26 14 -57 6 -75 31 -127 89 -184 130
-127 398 -199 642 -172 245 28 436 130 498 267 26 58 27 351 1 409 -17 38 -19
40 -137 73 -142 41 -306 117 -362 168 -40 36 -41 36 -129 36 -53 0 -127 -9
-184 -21 -107 -24 -89 -23 -311 -14 l-166 7 -106 84 -105 84 -86 -36 -86 -36
0 -123 0 -122 35 -24 c19 -13 35 -26 35 -29 0 -3 -382 -122 -850 -266 -714
-219 -846 -257 -832 -238 9 12 202 223 427 468 395 429 411 446 446 446 23 0
101 -28 210 -74 196 -83 174 -82 261 -4 l38 33 6 115 7 116 -139 58 c-77 33
-143 63 -148 67 -6 5 0 28 15 56 22 44 24 61 27 212 l3 164 -31 64 c-51 104
-178 187 -355 234 -92 24 -303 34 -400 19z m331 -356 c68 -17 149 -56 189 -90
l30 -25 -30 -25 c-43 -35 -120 -71 -195 -90 -78 -20 -231 -22 -315 -5 -70 15
-193 71 -219 100 -19 21 -19 21 0 42 24 26 115 73 174 89 116 32 254 34 366 4z
m2109 -1239 c83 -15 207 -69 240 -105 18 -19 18 -21 0 -40 -25 -28 -127 -76
-200 -95 -76 -19 -250 -19 -333 0 -71 17 -152 54 -197 90 -29 24 -29 24 -10
45 30 33 154 89 230 104 91 18 172 19 270 1z"/>
<path d="M32646 21073 l-30 -16 28 -14 c33 -17 39 -14 34 20 -3 25 -4 25 -32
10z"/>
<path d="M25620 20089 c0 -70 -21 -151 -55 -212 l-27 -48 103 -284 102 -285
42 0 c22 0 67 -7 99 -15 33 -9 61 -14 63 -11 4 3 -315 897 -323 905 -2 2 -4
-20 -4 -50z"/>
<path d="M29255 19230 c-534 -315 -2700 -1573 -2716 -1577 -12 -3 -45 78 -158
394 -79 219 -146 402 -148 406 -3 5 -28 -16 -57 -46 -28 -30 -61 -61 -73 -69
l-22 -14 199 -555 c110 -305 211 -576 225 -602 96 -187 309 -346 560 -419 68
-19 102 -23 225 -22 131 0 151 2 210 26 36 14 281 151 545 305 l479 280 21 69
c50 161 153 311 288 420 160 130 297 174 536 174 80 0 172 -4 204 -10 l57 -9
115 66 c63 37 115 71 115 76 0 5 -51 120 -114 255 -115 250 -377 823 -399 872
l-12 27 -80 -47z m-245 -800 c18 -12 2 -12 -25 0 -13 6 -15 9 -5 9 8 0 22 -4
30 -9z m-100 -5 c0 -2 -10 -9 -22 -15 -22 -11 -22 -10 -4 4 21 17 26 19 26 11z
m-50 -29 c0 -5 -184 -116 -455 -272 -132 -76 -250 -149 -262 -163 -13 -13 -26
-40 -29 -60 -4 -20 -9 -30 -11 -24 -7 21 16 79 40 101 18 16 362 221 657 390
58 33 60 34 60 28z"/>
<path d="M29916 17832 c104 -91 124 -104 115 -78 -29 75 -39 86 -83 86 -23 0
-38 -4 -32 -8z"/>
<path d="M9671 17745 c-221 -50 -357 -138 -396 -256 -54 -163 121 -318 422
-375 117 -22 314 -15 428 16 341 91 458 328 242 489 -70 52 -119 76 -224 107
-75 23 -111 27 -248 30 -115 3 -178 0 -224 -11z m412 -223 c150 -58 203 -115
195 -203 -4 -41 -12 -57 -43 -89 -67 -69 -218 -120 -355 -120 -192 0 -376 91
-396 195 -9 49 1 80 42 125 45 50 116 85 224 110 123 28 231 23 333 -18z"/>
<path d="M34643 15327 c3 -9 18 -55 33 -102 14 -47 28 -85 31 -85 9 0 83 74
81 81 -2 4 -36 33 -77 65 -41 32 -72 50 -68 41z"/>
</g>
</svg>
